<svg width="542" height="327" viewBox="0 0 542 327" fill="none" xmlns="http://www.w3.org/2000/svg">
<path d="M50 227C77.6142 227 100 249.386 100 277C100 304.614 77.6142 327 50 327C22.3858 327 0 304.614 0 277C0 249.386 22.3858 227 50 227ZM492 227C519.614 227 542 249.386 542 277C542 304.614 519.614 327 492 327C464.386 327 442 304.614 442 277C442 249.386 464.386 227 492 227ZM50 247C33.4315 247 20 260.431 20 277C20 293.569 33.4315 307 50 307C66.5685 307 80 293.569 80 277C80 260.431 66.5685 247 50 247ZM492 247C475.431 247 462 260.431 462 277C462 293.569 475.431 307 492 307C508.569 307 522 293.569 522 277C522 260.431 508.569 247 492 247ZM235.679 94.3242L103.947 212.614L159.846 215.619C164.533 215.871 168.13 219.876 167.878 224.563C167.626 229.251 163.621 232.847 158.934 232.595L82.5439 228.488C77.8563 228.236 74.2597 224.231 74.5117 219.543L78.6191 143.153C78.8715 138.466 82.8754 134.871 87.5625 135.122C92.2502 135.374 95.8468 139.38 95.5947 144.067L92.5898 199.965L224.321 81.6758L235.679 94.3242ZM449.41 199.965L446.405 144.067C446.153 139.38 449.75 135.374 454.438 135.122C459.125 134.871 463.128 138.466 463.381 143.153L467.488 219.543C467.74 224.231 464.144 228.236 459.456 228.488L383.066 232.595C378.379 232.847 374.374 229.251 374.122 224.563C373.87 219.876 377.467 215.871 382.154 215.619L438.053 212.614L306.321 94.3242L317.679 81.6758L449.41 199.965ZM272 0C299.614 0 322 22.3858 322 50C322 77.6142 299.614 100 272 100C244.386 100 222 77.6142 222 50C222 22.3858 244.386 0 272 0ZM272 20C255.431 20 242 33.4315 242 50C242 66.5685 255.431 80 272 80C288.569 80 302 66.5685 302 50C302 33.4315 288.569 20 272 20Z" fill="white"/>
</svg>
