<svg width="283" height="340" viewBox="0 0 283 340" fill="none" xmlns="http://www.w3.org/2000/svg">
<path d="M221.916 1.39026C226.672 -1.41742 232.804 0.161805 235.611 4.9176L281.365 82.4196C284.173 87.1754 282.594 93.3072 277.838 96.1149C273.082 98.9223 266.95 97.3431 264.143 92.5875L230.661 35.8737L198.884 159.249C194.924 174.621 179.673 184.248 164.092 181.211L119.138 172.446C114.468 171.536 109.804 174.041 107.984 178.436L78.8984 248.694C91.6672 257.753 100 272.654 100 289.502C99.9998 317.116 77.6141 339.502 50 339.502C22.3859 339.502 0.000197941 317.116 0 289.502C0 261.887 22.3858 239.502 50 239.502C53.6345 239.502 57.1785 239.889 60.5928 240.626L89.5049 170.787C94.9638 157.6 108.957 150.085 122.965 152.816L167.919 161.581C173.113 162.593 178.197 159.384 179.517 154.259L211.294 30.8854L154.582 64.3668C149.826 67.1743 143.694 65.5951 140.887 60.8395C138.079 56.0836 139.658 49.9519 144.414 47.1442L221.916 1.39026ZM50 259.502C33.4315 259.502 20 272.933 20 289.502C20.0002 306.07 33.4316 319.502 50 319.502C66.5684 319.502 79.9998 306.07 80 289.502C80 272.933 66.5685 259.502 50 259.502Z" fill="white"/>
</svg>
