<?xml version="1.0" encoding="utf-8"?>
<svg height="2em" width="2em" viewBox="392.082 209.343 33.999 33.887" xmlns="http://www.w3.org/2000/svg">
  <path fill-rule="evenodd" clip-rule="evenodd" d="M 396.454 227.202 L 390.985 229.553 L 396.153 241.808 L 401.673 239.432 L 396.454 227.202 Z" fill="#2A2941" style="transform-origin: 396.329px 234.505px;" transform="matrix(0.920505106449, 0.390731066465, -0.390731066465, 0.920505106449, 0.000022020029, 0.000015928898)"/>
  <path fill-rule="evenodd" clip-rule="evenodd" d="M 405.412 222.39 L 399.967 224.816 L 407.092 241.673 L 412.587 239.222 L 405.412 222.39 Z" fill="#2A2941" style="transform-origin: 406.277px 232.031px;" transform="matrix(0.920505106449, 0.390731066465, -0.390731066465, 0.920505106449, 0.000025284797, 0.000021124019)"/>
  <path fill-rule="evenodd" clip-rule="evenodd" d="M 414.065 216.07 L 408.696 218.546 L 418.33 241.405 L 423.799 238.904 L 414.065 216.07 Z" fill="#2A2941" style="transform-origin: 416.247px 228.737px;" transform="matrix(0.920505106449, 0.390731066465, -0.390731066465, 0.920505106449, 0.000023448717, 0.000014706843)"/>
  <path fill-rule="evenodd" clip-rule="evenodd" d="M 400.099 223.415 L 394.73 225.765 L 399.798 238.045 L 405.167 235.644 L 400.099 223.415 Z" fill="#FEC34E" style="transform-origin: 399.948px 230.73px;" transform="matrix(0.920505106449, 0.390731066465, -0.390731066465, 0.920505106449, 0.000024315033, 0.000023435943)"/>
  <path fill-rule="evenodd" clip-rule="evenodd" d="M 407.229 236.44 L 400.932 221.385 L 392.778 224.986 L 399.025 240.067 L 407.229 236.44 Z M 400.104 223.436 L 394.735 225.786 L 399.803 238.066 L 405.172 235.665 L 400.104 223.436 Z" fill="#2A2941" style="transform-origin: 400.003px 230.726px;" transform="matrix(0.920505106449, 0.390731066465, -0.390731066465, 0.920505106449, 0.00002999043, 0.000008519357)"/>
  <path fill-rule="evenodd" clip-rule="evenodd" d="M 408.93 218.51 L 403.561 220.936 L 410.56 237.818 L 415.929 235.367 L 408.93 218.51 Z" fill="#31CEA8" style="transform-origin: 409.745px 228.164px;" transform="matrix(0.920505106449, 0.390731066465, -0.390731066465, 0.920505106449, 0.000021556911, 0.000011221737)"/>
  <path fill-rule="evenodd" clip-rule="evenodd" d="M 417.961 236.143 L 409.732 216.485 L 401.654 220.162 L 409.808 239.869 L 417.961 236.143 Z M 408.93 218.536 L 403.561 220.962 L 410.56 237.844 L 415.929 235.393 L 408.93 218.536 Z" fill="#2A2941" style="transform-origin: 409.807px 228.177px;" transform="matrix(0.920505106449, 0.390731066465, -0.390731066465, 0.920505106449, 0.00002897342, 0.000021976099)"/>
  <path fill-rule="evenodd" clip-rule="evenodd" d="M 417.477 212.164 L 412.159 214.639 L 421.642 237.548 L 427.011 235.022 L 417.477 212.214 L 417.477 212.164 Z" fill="#4C5EFD" style="transform-origin: 419.585px 224.856px;" transform="matrix(0.920505106449, 0.390731066465, -0.390731066465, 0.920505106449, 0.000022626689, 0.000014917628)"/>
  <path fill-rule="evenodd" clip-rule="evenodd" d="M 429.004 235.769 L 418.241 210.085 L 410.163 213.861 L 420.825 239.571 L 429.004 235.769 Z M 417.463 212.16 L 412.145 214.636 L 421.653 237.545 L 427.022 235.019 L 417.488 212.21 L 417.463 212.16 Z" fill="#2A2941" style="transform-origin: 419.583px 224.828px;" transform="matrix(0.920505106449, 0.390731066465, -0.390731066465, 0.920505106449, 0.00002692977, 0.000008531585)"/>
</svg>